<?xml version="1.0" encoding="utf-8"?><svg version="1.1" id="asappel" xmlns="http://www.w3.org/2000/svg" x="0" y="0" viewBox="-30 -30 360 360" xml:space="preserve" width="120" height="120"><style>.asst0{fill:#5190cc}</style><path class="asst0" d="M150.1 123.6c-.3-31.6-21.3-50.7-56-51.2-34.9-.5-57.4 20-57.4 52.2-.1 32.7 20.8 51.4 57.3 51.3 36.5-.1 56.5-18.7 56.1-52.3zm-56.9 25.7c-15.8-.6-19.9-12.6-19.6-25.1.2-12.6 5.1-25 20.5-24.4 15.2.6 18.8 12.7 20 26.2-1.9 11.8-4.7 23.8-20.9 23.3zM187 162.4c-42.9.1-72 26.7-71.8 65.6.2 39.2 28.3 63.9 72.6 63.6 45.1-.3 70.2-23.9 69.7-65.6-.6-39.1-27.7-63.7-70.5-63.6zm25.4 66c-.7 16.1-6.2 29.9-25.2 31.1-15.7 1-25.8-12.5-25.5-36 1-12.5 5.1-26.5 24.8-27.2 16-.7 26.8 12.6 25.9 32.1zM184.6 85.2c26.4-.1 41.8-13.8 42.1-37.5.3-24-17-40-42.9-39.6-25 .4-42.6 16-42.9 38.1-.3 23.6 17.2 39.2 43.7 39zm-.4-55.9c11.5.3 15.6 8.5 15.3 18.7-.3 9.2-4.7 17.2-14.9 17-11.3-.2-15.3-8.3-14.9-18.9.3-9.4 3.7-17.1 14.5-16.8z"/></svg>