<?xml version="1.0" encoding="utf-8"?><svg version="1.1" id="ahappel" xmlns="http://www.w3.org/2000/svg" x="0" y="0" viewBox="-30 -30 360 360" xml:space="preserve" width="120" height="120"><style>.ahst0{fill:#f54029}</style><g id="ahLayer_x0020_1"><g id="ah_152392584"><path id="ah_152392368" class="ahst0" d="M262.8 224.6l-44.1 29.7c-14.3-21.5-26.9-40.4-37.9-56.7-11-16.2-18.6-27.6-22.9-34-25.7 39.5-45.7 69-60.2 88.5-14.4 19.6-26.8 34.4-37.3 44.5 0-1.8 7.1-19.4 21.3-52.8 14.1-33.3 31.6-73.1 52.4-119.3L63.3 13.6l37.2-8.3c7.5 14.6 15.2 29.7 22.8 45.5s16.7 34.8 27.2 57c5.6-8.9 15.3-25 29.1-48.2 13.7-23.3 24.4-39.7 32.1-49.3C201.6 45 194 71 188.9 88.3c-5.1 17.3-10 33.3-14.7 48.1l88.6 88.2z"/></g></g></svg>