<?xml version="1.0" encoding="utf-8"?><svg version="1.1" id="buprey-logo" xmlns="http://www.w3.org/2000/svg" x="0" y="0" viewBox="-20 -20 240 240" xml:space="preserve" width="120" height="120"><style>.bust0{fill:#fff}</style><path class="bust0" d="M100 8.6L69.4 26.3l20.4 11.8 10.2-5.9 10.2 5.9 20.4-11.8L100 8.6zM100 191.4l76.6-44.2V100l-20.4 11.8v23.6L100 167.8l-56.2-32.4v-23.6L23.4 100v47.2l76.6 44.2z"/><path class="bust0" d="M186.8 46.9v23.6l-71.5 41.3 20.4 11.8-35.7 20.6-35.7-20.6 20.4-11.8-71.5-41.3V46.9L3 41V11.6l86.8 50.1 10.2-5.9 10.2 5.9L197 11.5V41l-10.2 5.9z"/></svg>