<?xml version="1.0" encoding="utf-8"?><svg version="1.1" id="brslides-logo" xmlns="http://www.w3.org/2000/svg" x="0" y="0" viewBox="-65.6 -65.6 787.2 731.2" xml:space="preserve" width="120" height="111.46"><style>.brst0{fill:#512833}.brst1{fill:#934358}.brst2{fill:#e5637c}.brst3{fill:#fff}</style><g id="brSymbol"><path class="brst0" d="M535.3 583.1L56.5 495.7l87.3-478.8 479 87.4z"/><path class="brst1" d="M527.5 567L43.1 519.9 90.2 35.5l484.4 46.9z"/><path class="brst2" d="M520 544.5H33.3V57.8H520z"/><path class="brst3" d="M205.4 394.9c0-2.9 1.8-7.1 5.3-12.7 3.6-5.6 6.7-8.5 9.6-8.5.3 0 2.6 1.4 6.8 4 4.2 2.7 10.3 5.3 18.2 8.1s17.4 4 28.6 4c11.2 0 20.4-3.1 27.5-9.6 7.3-6.3 10.8-14.9 10.8-25.9 0-10.8-3.1-19.3-9.6-25.4-6.3-6-19-11.8-37.9-17.1s-32.6-12.2-41-20.5c-8.5-8.3-12.7-20.9-12.7-37.9s6.4-31.2 19.4-42.5c13-11.5 30-17.1 50.9-17.1 14.4 0 27.2 1.8 38.6 5.5 11.4 3.7 17 7.8 17 12.3 0 3.7-1.6 8.3-4.9 14.2-3.3 5.7-6.2 8.6-8.6 8.6-.3 0-2.1-.8-5.5-2.6-9.6-5.1-20.4-7.7-32.4-7.7s-21.3 2.5-27.9 7.4c-6.7 4.9-10 11.4-10 19.3s2.5 14.1 7.4 18.6c4.9 4.5 13.4 8.6 25.2 12.3 26.5 8.2 44.6 17.1 54 27 9.4 9.7 14.2 24.5 14.2 44.1 0 19.7-7 35.8-20.9 48.6-14 12.7-30.8 19-50.2 19-19.4 0-36.3-2.9-50.5-8.6-14.5-6-21.4-11.6-21.4-16.9z"/></g></svg>