<?xml version="1.0" encoding="utf-8"?><svg version="1.1" id="bsappel" xmlns="http://www.w3.org/2000/svg" x="0" y="0" viewBox="-118.72 -118.72 1237.44 1424.64" xml:space="preserve" width="104.23" height="120"><style>.bsst0{fill:#4d4d4e}.bsst1{fill:#f89820}.bsst2{fill:url(#bsSVGID_1_)}</style><path class="bsst0" d="M924.9 1151H78.1c-19.5 0-35.5-16-35.5-35.5V268.9c0-19.5 16-35.5 35.5-35.5h846.7c19.5 0 35.5 16 35.5 35.5v846.7c-.1 19.6-15.9 35.4-35.4 35.4z"/><path class="bsst1" d="M254.2 510.5l480.3-152.4s34.1-17.9 25.9 15.2l1.2 146.9s6 21.6-23.6 26.9l-195.1 61-288.7-97.6z"/><path class="bsst1" d="M254.2 510.5s-18.9 4.5-13.4 36.8l-1 141.5s-1.6 17.9 32.3 25.1l476 153.2s16 6.4 14.2-13.4l.2-157.8s4.5-16.2-25.1-26.9l-194.5-61-288.7-97.5z"/><linearGradient id="bsSVGID_1_" gradientUnits="userSpaceOnUse" x1="-307.305" y1="954.14" x2="-220.463" y2="984.186" gradientTransform="matrix(5.5944 0 0 -5.5944 1986.82 6275.792)"><stop offset=".233" stop-color="#f89822"/><stop offset="1" stop-color="#c27818"/></linearGradient><path class="bsst2" d="M463.9 775.5l-202.5 61.8s-24.4.8-21.6 46.6c2.9 45.8-.2 138-.2 138s2.1 17 25.5 7.2l480.3-153.2s17-4.3 2.7-9c-14.5-4.5-284.2-91.4-284.2-91.4z"/></svg>