<?xml version="1.0" encoding="utf-8"?><svg version="1.1" id="ckLayer_2" xmlns="http://www.w3.org/2000/svg" x="0" y="0" viewBox="-54.83 -54.83 657.96 657.96" xml:space="preserve" width="120" height="120"><style>.ckst0{fill:#6e49b4}</style><path class="ckst0" d="M486.2 196.1H473v-63.5c0-.4-.1-.8-.1-1.2 0-2.5-.8-5-2.6-7L364.7 3.7s-.1 0-.1-.1c-.6-.7-1.4-1.3-2.1-1.8-.2-.2-.5-.3-.7-.4-.7-.4-1.4-.7-2.1-.9-.2-.1-.4-.1-.6-.2-.8-.2-1.6-.3-2.5-.3H96.8C84.9 0 75.3 9.6 75.3 21.5v174.6H62.1c-17 0-30.7 13.8-30.7 30.7v159.8c0 17 13.8 30.7 30.7 30.7h13.2v109.4c0 11.9 9.6 21.5 21.5 21.5h354.8c11.9 0 21.5-9.6 21.5-21.5V417.4h13.2c17 0 30.7-13.8 30.7-30.7V226.9c-.1-17-13.8-30.8-30.8-30.8zM233 38.5h11.2c2.1 0 3.8-1.7 3.8-3.8s-1.7-3.8-3.8-3.8H233v-9.3h112.8v110c0 5.9 4.8 10.8 10.8 10.8h95v53.9H233v-10.9h11.2c2.1 0 3.8-1.7 3.8-3.8s-1.7-3.8-3.8-3.8H233v-14h11.2c2.1 0 3.8-1.7 3.8-3.8s-1.7-3.8-3.8-3.8H233v-11.6h18.5c6.3 0 11.5-5.2 11.5-11.5l-11.5-72.5c0-6.3-5.2-11.5-11.5-11.5h-7V38.5zm90.3 185.1v160.5h-36.4V223.6h36.4zm-177 30v-30h116.5v21L188 353.2v.9h76v30H139.2v-19.5l76.5-110v-1h-69.4zm88.6-187.5l9.7 61h-36.7l10.6-61h16.4zM96.8 21.5H221v9.4h-11.2c-2.1 0-3.8 1.7-3.8 3.8s1.7 3.8 3.8 3.8H221v10.4h-7.5c-6.3 0-11.5 5.2-11.5 11.5l-12.7 72.5c0 6.3 5.2 11.5 11.5 11.5H221V156h-11.2c-2.1 0-3.8 1.7-3.8 3.8s1.7 3.8 3.8 3.8H221v14.1h-11.2c-2.1 0-3.8 1.7-3.8 3.8s1.7 3.8 3.8 3.8H221v11H96.8V21.5zm0 499.5V417.4H221v17.2h-11.2c-2.1 0-3.8 1.7-3.8 3.8s1.7 3.8 3.8 3.8H221v14.3h-11.2c-2.1 0-3.8 1.7-3.8 3.8s1.7 3.8 3.8 3.8H221v14h-11.2c-2.1 0-3.8 1.7-3.8 3.8s1.7 3.8 3.8 3.8H221v14h-11.2c-2.1 0-3.8 1.7-3.8 3.8s1.7 3.8 3.8 3.8H221V521H96.8zm136.2 0v-13.6h11.2c2.1 0 3.8-1.7 3.8-3.8s-1.7-3.8-3.8-3.8H233v-14h11.2c2.1 0 3.8-1.7 3.8-3.8s-1.7-3.8-3.8-3.8H233v-14h11.2c2.1 0 3.8-1.7 3.8-3.8s-1.7-3.8-3.8-3.8H233v-14.3h11.2c2.1 0 3.8-1.7 3.8-3.8s-1.7-3.8-3.8-3.8H233v-17.2h218.5V521H233zm222.3-210.4c-12.4 11.7-30.7 16.9-52.2 16.9-4.8 0-9-.2-12.4-.7v57.4h-36V225.8c11.2-1.9 26.9-3.3 49.1-3.3 22.4 0 38.3 4.3 49.1 12.9 10.2 8.1 17.1 21.4 17.1 37.2 0 15.6-5.2 28.9-14.7 38z"/><path class="ckst0" d="M405.7 249.8c-7.4 0-12.4.7-15 1.4v47.4c3.1.7 6.9 1 12.2 1 19.3 0 31.2-9.8 31.2-26.2 0-14.7-10.3-23.6-28.4-23.6z"/></svg>