<?xml version="1.0" encoding="utf-8"?>
<!-- Generator: Adobe Illustrator 25.1.0, SVG Export Plug-In . SVG Version: 6.00 Build 0)  -->
<svg version="1.1"
	 id="appel" inkscape:version="0.91 r13725" sodipodi:docname="Apple_1998.svg" xmlns:cc="http://creativecommons.org/ns#" xmlns:dc="http://purl.org/dc/elements/1.1/" xmlns:inkscape="http://www.inkscape.org/namespaces/inkscape" xmlns:rdf="http://www.w3.org/1999/02/22-rdf-syntax-ns#" xmlns:sodipodi="http://sodipodi.sourceforge.net/DTD/sodipodi-0.dtd" xmlns:svg="http://www.w3.org/2000/svg"
	 xmlns="http://www.w3.org/2000/svg" xmlns:xlink="http://www.w3.org/1999/xlink" x="0px" y="0px" viewBox="0 0 300 300"
	 style="enable-background:new 0 0 300 300;" xml:space="preserve">
<style type="text/css">
	.st0{fill:#5190CC;}
</style>
<sodipodi:namedview  bordercolor="#666666" borderopacity="1" gridtolerance="10" guidetolerance="10" id="namedview6" inkscape:current-layer="svg2" inkscape:cx="-1066.5045" inkscape:cy="964.94669" inkscape:pageopacity="0" inkscape:pageshadow="2" inkscape:window-height="705" inkscape:window-maximized="1" inkscape:window-width="1366" inkscape:window-x="-8" inkscape:window-y="-8" inkscape:zoom="0.1767767" objecttolerance="10" pagecolor="#ffffff" showgrid="false">
	</sodipodi:namedview>
<g>
	<g>
		<path class="st0" d="M150.1,123.6c-0.3-31.6-21.3-50.7-56-51.2c-34.9-0.5-57.4,20-57.4,52.2C36.6,157.3,57.5,176,94,175.9
			C130.5,175.8,150.5,157.2,150.1,123.6z M93.2,149.3c-15.8-0.6-19.9-12.6-19.6-25.1c0.2-12.6,5.1-25,20.5-24.4
			c15.2,0.6,18.8,12.7,20,26.2C112.2,137.8,109.4,149.8,93.2,149.3z"/>
		<path class="st0" d="M187,162.4c-42.9,0.1-72,26.7-71.8,65.6c0.2,39.2,28.3,63.9,72.6,63.6c45.1-0.3,70.2-23.9,69.7-65.6
			C256.9,186.9,229.8,162.3,187,162.4z M212.4,228.4c-0.7,16.1-6.2,29.9-25.2,31.1c-15.7,1-25.8-12.5-25.5-36
			c1-12.5,5.1-26.5,24.8-27.2C202.5,195.6,213.3,208.9,212.4,228.4z"/>
		<path class="st0" d="M184.6,85.2c26.4-0.1,41.8-13.8,42.1-37.5c0.3-24-17-40-42.9-39.6c-25,0.4-42.6,16-42.9,38.1
			C140.6,69.8,158.1,85.4,184.6,85.2z M184.2,29.3c11.5,0.3,15.6,8.5,15.3,18.7c-0.3,9.2-4.7,17.2-14.9,17
			c-11.3-0.2-15.3-8.3-14.9-18.9C170,36.7,173.4,29,184.2,29.3z"/>
	</g>
</g>
</svg>
