<?xml version="1.0" encoding="utf-8"?>
<!-- Generator: Adobe Illustrator 25.1.0, SVG Export Plug-In . SVG Version: 6.00 Build 0)  -->
<svg version="1.1"
	 id="appel" inkscape:version="0.91 r13725" sodipodi:docname="Apple_1998.svg" xmlns:cc="http://creativecommons.org/ns#" xmlns:dc="http://purl.org/dc/elements/1.1/" xmlns:inkscape="http://www.inkscape.org/namespaces/inkscape" xmlns:rdf="http://www.w3.org/1999/02/22-rdf-syntax-ns#" xmlns:sodipodi="http://sodipodi.sourceforge.net/DTD/sodipodi-0.dtd" xmlns:svg="http://www.w3.org/2000/svg"
	 xmlns="http://www.w3.org/2000/svg" xmlns:xlink="http://www.w3.org/1999/xlink" x="0px" y="0px" viewBox="0 0 300 300"
	 style="enable-background:new 0 0 300 300;" xml:space="preserve">
<style type="text/css">
	.st0{fill:#F54029;}
</style>
<sodipodi:namedview  bordercolor="#666666" borderopacity="1" gridtolerance="10" guidetolerance="10" id="namedview6" inkscape:current-layer="svg2" inkscape:cx="-1066.5045" inkscape:cy="964.94669" inkscape:pageopacity="0" inkscape:pageshadow="2" inkscape:window-height="705" inkscape:window-maximized="1" inkscape:window-width="1366" inkscape:window-x="-8" inkscape:window-y="-8" inkscape:zoom="0.1767767" objecttolerance="10" pagecolor="#ffffff" showgrid="false">
	</sodipodi:namedview>
<g id="Layer_x0020_1">
	<g id="_152392584">
		<g>
			<path id="_152392368" class="st0" d="M262.8,224.6l-44.1,29.7c-14.3-21.5-26.9-40.4-37.9-56.7c-11-16.2-18.6-27.6-22.9-34
				c-25.7,39.5-45.7,69-60.2,88.5c-14.4,19.6-26.8,34.4-37.3,44.5c0-1.8,7.1-19.4,21.3-52.8c14.1-33.3,31.6-73.1,52.4-119.3
				L63.3,13.6l37.2-8.3c7.5,14.6,15.2,29.7,22.8,45.5s16.7,34.8,27.2,57c5.6-8.9,15.3-25,29.1-48.2c13.7-23.3,24.4-39.7,32.1-49.3
				c-10.1,34.7-17.7,60.7-22.8,78c-5.1,17.3-10,33.3-14.7,48.1L262.8,224.6L262.8,224.6z"/>
		</g>
	</g>
</g>
</svg>
