<?xml version="1.0" encoding="utf-8"?>
<!-- Generator: Adobe Illustrator 25.1.0, SVG Export Plug-In . SVG Version: 6.00 Build 0)  -->
<svg version="1.1" id="prey-logo" xmlns="http://www.w3.org/2000/svg" xmlns:xlink="http://www.w3.org/1999/xlink" x="0px" y="0px"
	 viewBox="0 0 200 200" style="enable-background:new 0 0 200 200;" xml:space="preserve">
<style type="text/css">
	.st0{fill:#FFFFFF;}
</style>
<g>
	<path class="st0" d="M100,8.6L69.4,26.3l20.4,11.8l10.2-5.9l10.2,5.9l20.4-11.8L100,8.6z"/>
	<path class="st0" d="M100,191.4l76.6-44.2l0-47.2l-20.4,11.8l0,23.6L100,167.8l-56.2-32.4l0-23.6L23.4,100v47.2L100,191.4z"/>
	<path class="st0" d="M186.8,46.9L186.8,46.9l0,23.6l-71.5,41.3l20.4,11.8L100,144.2l-35.7-20.6l20.4-11.8L13.2,70.5l0-23.6L3,41
		V11.6l86.8,50.1l10.2-5.9l10.2,5.9L197,11.5V41L186.8,46.9z"/>
</g>
</svg>
