<?xml version="1.0" encoding="utf-8"?>
<!-- Generator: Adobe Illustrator 25.1.0, SVG Export Plug-In . SVG Version: 6.00 Build 0)  -->
<svg version="1.1" id="slides-logo" xmlns="http://www.w3.org/2000/svg" xmlns:xlink="http://www.w3.org/1999/xlink" x="0px"
	 y="0px" viewBox="0 0 656 600" style="enable-background:new 0 0 656 600;" xml:space="preserve">
<style type="text/css">
	.st0{fill:#512833;}
	.st1{fill:#934358;}
	.st2{fill:#E5637C;}
	.st3{fill:#FFFFFF;}
</style>
<g id="Symbol">
	<g>
		<polygon class="st0" points="535.3,583.1 56.5,495.7 143.8,16.9 622.8,104.3 		"/>
		<polygon class="st1" points="527.5,567 43.1,519.9 90.2,35.5 574.6,82.4 		"/>
		<polygon class="st2" points="520,544.5 33.3,544.5 33.3,57.8 520,57.8 		"/>
		<path class="st3" d="M205.4,394.9c0-2.9,1.8-7.1,5.3-12.7c3.6-5.6,6.7-8.5,9.6-8.5c0.3,0,2.6,1.4,6.8,4c4.2,2.7,10.3,5.3,18.2,8.1
			s17.4,4,28.6,4c11.2,0,20.4-3.1,27.5-9.6c7.3-6.3,10.8-14.9,10.8-25.9c0-10.8-3.1-19.3-9.6-25.4c-6.3-6-19-11.8-37.9-17.1
			s-32.6-12.2-41-20.5c-8.5-8.3-12.7-20.9-12.7-37.9c0-17,6.4-31.2,19.4-42.5c13-11.5,30-17.1,50.9-17.1c14.4,0,27.2,1.8,38.6,5.5
			c11.4,3.7,17,7.8,17,12.3c0,3.7-1.6,8.3-4.9,14.2c-3.3,5.7-6.2,8.6-8.6,8.6c-0.3,0-2.1-0.8-5.5-2.6c-9.6-5.1-20.4-7.7-32.4-7.7
			c-12,0-21.3,2.5-27.9,7.4c-6.7,4.9-10,11.4-10,19.3s2.5,14.1,7.4,18.6c4.9,4.5,13.4,8.6,25.2,12.3c26.5,8.2,44.6,17.1,54,27
			c9.4,9.7,14.2,24.5,14.2,44.1c0,19.7-7,35.8-20.9,48.6c-14,12.7-30.8,19-50.2,19c-19.4,0-36.3-2.9-50.5-8.6
			C212.3,405.8,205.4,400.2,205.4,394.9L205.4,394.9z"/>
	</g>
</g>
</svg>
