<?xml version="1.0" encoding="utf-8"?>
<!-- Generator: Adobe Illustrator 25.1.0, SVG Export Plug-In . SVG Version: 6.00 Build 0)  -->
<svg version="1.1"
	 id="appel" inkscape:version="0.91 r13725" sodipodi:docname="Apple_1998.svg" xmlns:cc="http://creativecommons.org/ns#" xmlns:dc="http://purl.org/dc/elements/1.1/" xmlns:inkscape="http://www.inkscape.org/namespaces/inkscape" xmlns:rdf="http://www.w3.org/1999/02/22-rdf-syntax-ns#" xmlns:sodipodi="http://sodipodi.sourceforge.net/DTD/sodipodi-0.dtd" xmlns:svg="http://www.w3.org/2000/svg"
	 xmlns="http://www.w3.org/2000/svg" xmlns:xlink="http://www.w3.org/1999/xlink" x="0px" y="0px" viewBox="0 0 1000 1187.2"
	 style="enable-background:new 0 0 1000 1187.2;" xml:space="preserve">
<style type="text/css">
	.st0{fill:#4D4D4E;}
	.st1{fill:#F89820;}
	.st2{fill:url(#SVGID_1_);}
</style>
<sodipodi:namedview  bordercolor="#666666" borderopacity="1" gridtolerance="10" guidetolerance="10" id="namedview6" inkscape:current-layer="svg2" inkscape:cx="-1066.5045" inkscape:cy="964.94669" inkscape:pageopacity="0" inkscape:pageshadow="2" inkscape:window-height="705" inkscape:window-maximized="1" inkscape:window-width="1366" inkscape:window-x="-8" inkscape:window-y="-8" inkscape:zoom="0.1767767" objecttolerance="10" pagecolor="#ffffff" showgrid="false">
	</sodipodi:namedview>
<path class="st0" d="M924.9,1151H78.1c-19.5,0-35.5-16-35.5-35.5V268.9c0-19.5,16-35.5,35.5-35.5h846.7c19.5,0,35.5,16,35.5,35.5
	v846.7C960.2,1135.2,944.4,1151,924.9,1151L924.9,1151z"/>
<path class="st1" d="M254.2,510.5l480.3-152.4c0,0,34.1-17.9,25.9,15.2l1.2,146.9c0,0,6,21.6-23.6,26.9l-195.1,61L254.2,510.5z"/>
<path class="st1" d="M254.2,510.5c0,0-18.9,4.5-13.4,36.8l-1,141.5c0,0-1.6,17.9,32.3,25.1l476,153.2c0,0,16,6.4,14.2-13.4
	l0.2-157.8c0,0,4.5-16.2-25.1-26.9l-194.5-61L254.2,510.5z"/>
<linearGradient id="SVGID_1_" gradientUnits="userSpaceOnUse" x1="-307.305" y1="954.1399" x2="-220.4634" y2="984.1863" gradientTransform="matrix(5.5944 0 0 -5.5944 1986.8209 6275.7925)">
	<stop  offset="0.233" style="stop-color:#F89822"/>
	<stop  offset="1" style="stop-color:#C27818"/>
</linearGradient>
<path class="st2" d="M463.9,775.5l-202.5,61.8c0,0-24.4,0.8-21.6,46.6c2.9,45.8-0.2,138-0.2,138s2.1,17,25.5,7.2l480.3-153.2
	c0,0,17-4.3,2.7-9C733.6,862.4,463.9,775.5,463.9,775.5z"/>
</svg>
