<?xml version="1.0" encoding="utf-8"?>
<!-- Generator: Adobe Illustrator 25.1.0, SVG Export Plug-In . SVG Version: 6.00 Build 0)  -->
<svg version="1.1" id="Layer_2" xmlns="http://www.w3.org/2000/svg" xmlns:xlink="http://www.w3.org/1999/xlink" x="0px" y="0px"
	 viewBox="0 0 548.3 548.3" style="enable-background:new 0 0 548.3 548.3;" xml:space="preserve">
<style type="text/css">
	.st0{fill:#6E49B4;}
</style>
<g>
	<path class="st0" d="M486.2,196.1H473v-63.5c0-0.4-0.1-0.8-0.1-1.2c0-2.5-0.8-5-2.6-7L364.7,3.7c0,0-0.1,0-0.1-0.1
		c-0.6-0.7-1.4-1.3-2.1-1.8c-0.2-0.2-0.5-0.3-0.7-0.4c-0.7-0.4-1.4-0.7-2.1-0.9c-0.2-0.1-0.4-0.1-0.6-0.2c-0.8-0.2-1.6-0.3-2.5-0.3
		H96.8C84.9,0,75.3,9.6,75.3,21.5v174.6H62.1c-17,0-30.7,13.8-30.7,30.7v159.8c0,17,13.8,30.7,30.7,30.7h13.2v109.4
		c0,11.9,9.6,21.5,21.5,21.5h354.8c11.9,0,21.5-9.6,21.5-21.5V417.4h13.2c17,0,30.7-13.8,30.7-30.7V226.9
		C516.9,209.9,503.2,196.1,486.2,196.1z M233,38.5h11.2c2.1,0,3.8-1.7,3.8-3.8s-1.7-3.8-3.8-3.8H233v-9.3h112.8v110
		c0,5.9,4.8,10.8,10.8,10.8h95v53.9H233l0-10.9h11.2c2.1,0,3.8-1.7,3.8-3.8s-1.7-3.8-3.8-3.8l-11.2,0l0-14h11.2
		c2.1,0,3.8-1.7,3.8-3.8s-1.7-3.8-3.8-3.8H233l0-11.6h0h18.5c6.3,0,11.5-5.2,11.5-11.5l-11.5-72.5c0-6.3-5.2-11.5-11.5-11.5h-7h0
		L233,38.5z M323.3,223.6v160.5h-36.4V223.6H323.3z M146.3,253.6v-30h116.5v21L188,353.2v0.9h76v30H139.2v-19.5l76.5-110v-1H146.3z
		 M234.9,66.1l9.7,61h-36.7l10.6-61H234.9z M96.8,21.5L221,21.5v9.4l-11.2,0c-2.1,0-3.8,1.7-3.8,3.8s1.7,3.8,3.8,3.8l11.2,0v10.4
		h-0.1h-7.4c-6.3,0-11.5,5.2-11.5,11.5l-12.7,72.5c0,6.3,5.2,11.5,11.5,11.5H221l0,11.6v0h-11.2c-2.1,0-3.8,1.7-3.8,3.8
		s1.7,3.8,3.8,3.8H221v0l0,14.1l-11.2,0c-2.1,0-3.8,1.7-3.8,3.8s1.7,3.8,3.8,3.8l11.2,0l0,11H96.8V21.5z M96.8,521V417.4H221v17.2
		l-11.2,0c-2.1,0-3.8,1.7-3.8,3.8s1.7,3.8,3.8,3.8l11.2,0v14.3l-11.2,0c-2.1,0-3.8,1.7-3.8,3.8s1.7,3.8,3.8,3.8l11.2,0v14l-11.2,0
		c-2.1,0-3.8,1.7-3.8,3.8s1.7,3.8,3.8,3.8l11.2,0v14l-11.2,0c-2.1,0-3.8,1.7-3.8,3.8s1.7,3.8,3.8,3.8l11.2,0V521H96.8z M233,521
		L233,521l0-13.6l11.2,0c2.1,0,3.8-1.7,3.8-3.8s-1.7-3.8-3.8-3.8l-11.2,0l0-14l11.2,0c2.1,0,3.8-1.7,3.8-3.8s-1.7-3.8-3.8-3.8
		l-11.2,0l0-14l11.2,0c2.1,0,3.8-1.7,3.8-3.8s-1.7-3.8-3.8-3.8l-11.2,0l0-14.3l11.2,0c2.1,0,3.8-1.7,3.8-3.8s-1.7-3.8-3.8-3.8
		l-11.2,0l0-17.2h218.5V521H233z M455.3,310.6c-12.4,11.7-30.7,16.9-52.2,16.9c-4.8,0-9-0.2-12.4-0.7v57.4h-36V225.8
		c11.2-1.9,26.9-3.3,49.1-3.3c22.4,0,38.3,4.3,49.1,12.9c10.2,8.1,17.1,21.4,17.1,37.2C470,288.2,464.8,301.5,455.3,310.6z"/>
	<path class="st0" d="M405.7,249.8c-7.4,0-12.4,0.7-15,1.4v47.4c3.1,0.7,6.9,1,12.2,1c19.3,0,31.2-9.8,31.2-26.2
		C434.1,258.7,423.8,249.8,405.7,249.8z"/>
</g>
</svg>
